<?xml version="1.0" encoding="UTF-8" standalone="no"?>
<!-- Created with Inkscape (http://www.inkscape.org/) -->

<svg
   xmlns:dc="http://purl.org/dc/elements/1.1/"
   xmlns:cc="http://creativecommons.org/ns#"
   xmlns:rdf="http://www.w3.org/1999/02/22-rdf-syntax-ns#"
   xmlns:svg="http://www.w3.org/2000/svg"
   xmlns="http://www.w3.org/2000/svg"
   xmlns:xlink="http://www.w3.org/1999/xlink"
   xmlns:sodipodi="http://sodipodi.sourceforge.net/DTD/sodipodi-0.dtd"
   xmlns:inkscape="http://www.inkscape.org/namespaces/inkscape"
   version="1.1"
   width="1984"
   height="1408.0001"
   id="svg2"
   inkscape:version="0.48.3.1 r9886"
   sodipodi:docname="icons.svg">
  <sodipodi:namedview
     pagecolor="#000000"
     bordercolor="#666666"
     borderopacity="1"
     objecttolerance="10"
     gridtolerance="10"
     guidetolerance="10"
     inkscape:pageopacity="1"
     inkscape:pageshadow="2"
     inkscape:window-width="1014"
     inkscape:window-height="800"
     id="namedview264"
     showgrid="true"
     inkscape:zoom="0.30947581"
     inkscape:cx="900.45123"
     inkscape:cy="690.22679"
     inkscape:window-x="0"
     inkscape:window-y="0"
     inkscape:window-maximized="0"
     inkscape:current-layer="svg2">
    <inkscape:grid
       type="xygrid"
       id="grid3260"
       empspacing="4"
       visible="true"
       enabled="true"
       snapvisiblegridlinesonly="true"
       spacingx="8px"
       spacingy="8px"
       color="#b4b4b4"
       opacity="0.11764706"
       empcolor="#b4b4b4"
       empopacity="0.19607843" />
  </sodipodi:namedview>
  <defs
     id="defs4" />
  <metadata
     id="metadata7">
    <rdf:RDF>
      <cc:Work
         rdf:about="">
        <dc:format>image/svg+xml</dc:format>
        <dc:type
           rdf:resource="http://purl.org/dc/dcmitype/StillImage" />
        <dc:title></dc:title>
      </cc:Work>
    </rdf:RDF>
  </metadata>
  <rect
     style="opacity:0.50000000000000000;fill:#666666;fill-opacity:1;stroke:none"
     id="rect3178"
     y="7.2617186e-05"
     x="-160"
     height="128"
     width="128" />
  <g
     style="fill:#ffffff"
     id="saw"
     transform="translate(0,-412.36211)">
    <use
       xlink:href="#rect3178"
       height="640"
       width="640"
       y="0"
       x="0"
       style="fill:#ffffff"
       id="use3109"
       transform="translate(160,412.36215)" />
    <path
       inkscape:connector-curvature="0"
       style="fill:#ffffff;fill-opacity:1;stroke:none"
       id="path3046"
       transform="translate(0,412.36218)"
       d="m 64,24 0,12 -28,0 8,8 -20,20 12,0 0,28 8,-8 20,20 0,-12 28,0 -8,-8 20,-20 -12,0 0,-28 -8,8 -20,-20 z m 0,20 C 75.045695,44 84,52.954305 84,64 84,75.045695 75.045695,84 64,84 52.954305,84 44,75.045695 44,64 44,52.954305 52.954305,44 64,44 z" />
    <path
       inkscape:connector-curvature="0"
       style="fill:#ffffff;fill-opacity:1;stroke:none"
       id="path3092"
       transform="matrix(0.26666666,0,0,0.2352941,47.466667,460.83277)"
       d="m 92,66 a 30,34 0 1 1 -60,0 30,34 0 1 1 60,0 z" />
  </g>
  <g
     style="fill:#ffffff"
     id="shell"
     transform="translate(0,-412.36211)">
    <use
       xlink:href="#rect3178"
       height="640"
       width="640"
       y="0"
       x="0"
       style="fill:#ffffff"
       id="use3125"
       transform="translate(480,412.36215)" />
    <path
       inkscape:connector-curvature="0"
       style="fill:#ffffff;fill-opacity:1;stroke:none"
       id="rect3133"
       d="m 368,440.36218 0,52 32,0 0,-52 -32,0 z m 8,8 16,0 0,32 -16,0 0,-32 z" />
    <rect
       style="fill:#ffffff;fill-opacity:1;stroke:none"
       id="rect3137"
       y="500.36218"
       x="368"
       height="11.999997"
       width="32" />
  </g>
  <g
     style="fill:#ffffff"
     id="bullet"
     transform="translate(0,-412.36211)">
    <use
       xlink:href="#rect3178"
       height="640"
       width="640"
       y="0"
       x="0"
       style="fill:#ffffff"
       id="use3139"
       transform="translate(640,412.36215)" />
    <path
       inkscape:connector-curvature="0"
       style="fill:#ffffff;fill-opacity:1;stroke:none"
       id="rect3143"
       transform="translate(0,412.36218)"
       d="m 544,24 c 0,0 -16,8 -16,32 l 0,24 32,0 0,-24 C 560,32 544,24 544,24 z m 0,12 c 0,0 8,4 8,20 l 0,12 -16,0 0,-12 c 0,-16 8,-20 8,-20 z" />
    <rect
       style="fill:#ffffff;fill-opacity:1;stroke:none"
       id="rect3147"
       y="500.36218"
       x="528"
       height="11.999997"
       width="32" />
  </g>
  <g
     style="fill:#ffffff"
     id="clover"
     transform="translate(0,-412.36211)">
    <use
       xlink:href="#rect3178"
       height="640"
       width="640"
       y="0"
       x="0"
       style="fill:#ffffff"
       id="use3151"
       transform="translate(160,572.36216)" />
    <path
       inkscape:connector-curvature="0"
       style="fill:#ffffff;fill-opacity:1;stroke:none"
       id="rect3161"
       transform="translate(0,412.36218)"
       d="m 64,184 c 4,0 12,4 12,8 0,4 -8,4 -12,16 -4,-12 -12,-12 -12,-16 0,-4 8,-8 12,-8 z" />
    <path
       inkscape:connector-curvature="0"
       style="fill:#ffffff;fill-opacity:1;stroke:none"
       id="path3159"
       transform="matrix(0.40000001,0,0,0.35294111,39.2,613.06807)"
       d="m 92,66 a 30,34 0 1 1 -60,0 30,34 0 1 1 60,0 z" />
    <path
       inkscape:connector-curvature="0"
       style="fill:#ffffff;fill-opacity:1;stroke:none"
       id="path3231"
       d="m 64,676.36218 c 4,0 12,-4 12,-8 0,-4 -8,-4 -12,-16 -4,12 -12,12 -12,16 0,4 8,8 12,8 z" />
    <path
       inkscape:connector-curvature="0"
       style="fill:#ffffff;fill-opacity:1;stroke:none"
       id="path3233"
       d="m 24,636.36218 c 0,-4 4,-12 8,-12 4,0 4,8 16,12 -12,4 -12,12 -16,12 -4,0 -8,-8 -8,-12 z" />
    <path
       inkscape:connector-curvature="0"
       style="fill:#ffffff;fill-opacity:1;stroke:none"
       id="path3235"
       d="m 104,636.36218 c 0,4 -4,12 -8,12 -4,0 -4,-8 -16,-12 12,-4 12,-12 16,-12 4,0 8,8 8,12 z" />
  </g>
  <g
     style="fill:#ffffff"
     id="chain"
     transform="translate(0,-412.36211)">
    <use
       xlink:href="#rect3178"
       height="640"
       width="640"
       y="0"
       x="0"
       style="fill:#ffffff"
       id="use3186"
       transform="translate(320,572.36216)" />
    <path
       inkscape:connector-curvature="0"
       style="fill:#ffffff;fill-opacity:1;stroke:none"
       id="path3200"
       transform="translate(0,412.36218)"
       d="m 224,184 c -6.62742,0 -12,5.37258 -12,12 0,6.62742 5.37258,12 12,12 6.62742,0 12,-5.37258 12,-12 0,-6.62742 -5.37258,-12 -12,-12 z m 0,8 c 2.20914,0 4,1.79086 4,4 0,2.20914 -1.79086,4 -4,4 -2.20914,0 -4,-1.79086 -4,-4 0,-2.20914 1.79086,-4 4,-4 z" />
    <path
       inkscape:connector-curvature="0"
       style="fill:#ffffff;fill-opacity:1;stroke:none"
       id="path3220"
       transform="matrix(0.26666661,0,0,0.23529413,207.46667,620.83277)"
       d="m 92,66 a 30,34 0 1 1 -60,0 30,34 0 1 1 60,0 z" />
    <path
       inkscape:connector-curvature="0"
       style="fill:#ffffff;fill-opacity:1;stroke:none"
       id="path3240"
       d="m 224,652.36218 c -6.62742,0 -12,5.37258 -12,12 0,6.62742 5.37258,12 12,12 6.62742,0 12,-5.37258 12,-12 0,-6.62742 -5.37258,-12 -12,-12 z m 0,8 c 2.20914,0 4,1.79086 4,4 0,2.20914 -1.79086,4 -4,4 -2.20914,0 -4,-1.79086 -4,-4 0,-2.20914 1.79086,-4 4,-4 z" />
    <path
       inkscape:connector-curvature="0"
       style="fill:#ffffff;fill-opacity:1;stroke:none"
       id="path3242"
       d="m 258.64102,616.36218 c -3.31371,-5.73951 -10.65279,-7.70601 -16.39231,-4.3923 -5.73951,3.31371 -7.70601,10.65279 -4.3923,16.3923 3.31371,5.73951 10.65279,7.70601 16.3923,4.3923 5.73952,-3.31371 7.70602,-10.65279 4.39231,-16.3923 z m -6.92821,4 c 1.10457,1.91317 0.44907,4.35953 -1.4641,5.4641 -1.91317,1.10457 -4.35953,0.44907 -5.4641,-1.4641 -1.10457,-1.91317 -0.44907,-4.35953 1.4641,-5.4641 1.91317,-1.10457 4.35953,-0.44907 5.4641,1.4641 z" />
    <path
       inkscape:connector-curvature="0"
       style="fill:#ffffff;fill-opacity:1;stroke:none"
       id="path3244"
       d="m 210.14359,644.36218 c -3.31371,-5.73951 -10.65279,-7.70601 -16.3923,-4.3923 -5.73952,3.31371 -7.70602,10.65279 -4.39231,16.3923 3.31371,5.73951 10.65279,7.70601 16.39231,4.3923 5.73951,-3.31371 7.70601,-10.65279 4.3923,-16.3923 z m -6.9282,4 c 1.10457,1.91317 0.44907,4.35953 -1.4641,5.4641 -1.91317,1.10457 -4.35953,0.44907 -5.4641,-1.4641 -1.10457,-1.91317 -0.44907,-4.35953 1.4641,-5.4641 1.91317,-1.10457 4.35953,-0.44907 5.4641,1.4641 z" />
    <path
       inkscape:connector-curvature="0"
       style="fill:#ffffff;fill-opacity:1;stroke:none"
       id="path3246"
       d="m 189.35898,616.36218 c -3.31371,5.73951 -1.34721,13.07859 4.39231,16.3923 5.73951,3.31371 13.07859,1.34721 16.3923,-4.3923 3.31371,-5.73951 1.34721,-13.07859 -4.3923,-16.3923 -5.73952,-3.31371 -13.0786,-1.34721 -16.39231,4.3923 z m 6.92821,4 c 1.10457,-1.91317 3.55093,-2.56867 5.4641,-1.4641 1.91317,1.10457 2.56867,3.55093 1.4641,5.4641 -1.10457,1.91317 -3.55093,2.56867 -5.4641,1.4641 -1.91317,-1.10457 -2.56867,-3.55093 -1.4641,-5.4641 z" />
    <path
       inkscape:connector-curvature="0"
       style="fill:#ffffff;fill-opacity:1;stroke:none"
       id="path3248"
       d="m 237.85641,644.36218 c -3.31371,5.73951 -1.34721,13.07859 4.3923,16.3923 5.73952,3.31371 13.0786,1.34721 16.39231,-4.3923 3.31371,-5.73951 1.34721,-13.07859 -4.39231,-16.3923 -5.73951,-3.31371 -13.07859,-1.34721 -16.3923,4.3923 z m 6.9282,4 c 1.10457,-1.91317 3.55093,-2.56867 5.4641,-1.4641 1.91317,1.10457 2.56867,3.55093 1.4641,5.4641 -1.10457,1.91317 -3.55093,2.56867 -5.4641,1.4641 -1.91317,-1.10457 -2.56867,-3.55093 -1.4641,-5.4641 z" />
  </g>
  <g
     style="fill:#ffffff"
     id="wrench"
     transform="translate(0,-412.36211)">
    <use
       xlink:href="#rect3178"
       height="640"
       width="640"
       y="0"
       x="0"
       style="fill:#ffffff"
       id="use3250"
       transform="translate(480,572.36216)" />
    <path
       inkscape:connector-curvature="0"
       style="fill:#ffffff;fill-opacity:1;stroke:none"
       id="rect3254"
       transform="translate(0,412.36218)"
       d="m 368,188 c -2.216,0 -4,1.784 -4,4 l 0,16 c 0,2.216 1.784,4 4,4 l 32,0 c 2.216,0 4,-1.784 4,-4 l 0,-16 c 0,-2.216 -1.784,-4 -4,-4 l -4,0 0,12 -12,8 -12,-8 0,-12 -4,0 z" />
    <rect
       style="fill:#ffffff;fill-opacity:1;stroke:none"
       id="rect3258"
       y="620.36218"
       x="372"
       height="32.000004"
       width="24" />
    <path
       inkscape:connector-curvature="0"
       style="fill:#ffffff;fill-opacity:1;stroke:none"
       id="rect3269"
       transform="translate(0,412.36218)"
       d="m 368,236 c -2.216,0 -4,1.784 -4,4 l 0,16 c 0,2.216 1.784,4 4,4 l 4,0 0,-12 12,-8 12,8 0,12 4,0 c 2.216,0 4,-1.784 4,-4 l 0,-16 c 0,-2.216 -1.784,-4 -4,-4 l -32,0 z" />
  </g>
  <g
     style="fill:#ffffff"
     id="nuke"
     transform="translate(0,-412.36211)">
    <use
       xlink:href="#rect3178"
       height="640"
       width="640"
       y="0"
       x="0"
       style="fill:#ffffff"
       id="use3299"
       transform="translate(160,732.36216)" />
    <path
       inkscape:connector-curvature="0"
       style="fill:#ffffff;fill-opacity:1;stroke:none"
       id="path3303"
       d="m 64,756.36218 c 4,0 12,4 12,8 0,4 -4,12 -12,20 -8,-8 -12,-16 -12,-20 0,-4 8,-8 12,-8 z" />
    <path
       inkscape:connector-curvature="0"
       style="fill:#ffffff;fill-opacity:1;stroke:none"
       id="path3305"
       transform="matrix(0.26666666,0,0,0.23529419,47.46667,780.83276)"
       d="m 92,66 a 30,34 0 1 1 -60,0 30,34 0 1 1 60,0 z" />
    <path
       inkscape:connector-curvature="0"
       style="fill:#ffffff;fill-opacity:1;stroke:none"
       id="path3307"
       d="m 98.64102,816.36218 c -2,3.4641 -9.46411,8.3923 -12.92821,6.3923 -3.4641,-2 -8.3923,-9.4641 -11.32051,-20.3923 10.92821,-2.9282 19.85641,-2.3923 23.32051,-0.3923 3.4641,2 2.92821,10.9282 0.92821,14.3923 z" />
    <path
       inkscape:connector-curvature="0"
       style="fill:#ffffff;fill-opacity:1;stroke:none"
       id="path3309"
       d="m 29.35898,816.36218 c -2,-3.4641 -2.5359,-12.3923 0.92821,-14.3923 3.4641,-2 12.3923,-2.5359 23.3205,0.3923 -2.9282,10.9282 -7.8564,18.3923 -11.3205,20.3923 -3.46411,2 -10.92821,-2.9282 -12.92821,-6.3923 z" />
  </g>
  <g
     style="fill:#ffffff"
     id="blast"
     transform="translate(0,-412.36211)">
    <use
       xlink:href="#rect3178"
       height="640"
       width="640"
       y="0"
       x="0"
       style="fill:#ffffff"
       id="use3273"
       transform="translate(320,732.36216)" />
    <path
       inkscape:connector-curvature="0"
       style="fill:#ffffff;fill-opacity:1;stroke:none"
       id="path3277"
       transform="translate(0,412.36218)"
       d="m 248,364 c -16,0 -12,16 -64,20 52,4 48,20 64,20 8,0 16,-8 16,-20 0,-12 -8,-20 -16,-20 z m -2,8 c 5.52285,0 10,5.37258 10,12 0,6.62742 -4.47715,12 -10,12 -5.52285,0 -10,-5.37258 -10,-12 0,-6.62742 4.47715,-12 10,-12 z" />
    <path
       inkscape:connector-curvature="0"
       style="fill:#ffffff;fill-opacity:1;stroke:none"
       id="path3311"
       d="m 248,796.36218 c 0,-12 -12,-12 -52,-12 40,12 40,12 0,24 40,0 52,0 52,-12 z" />
  </g>
  <g
     style="fill:#ffffff"
     id="shield"
     transform="translate(0,-412.36211)">
    <use
       xlink:href="#rect3178"
       height="640"
       width="640"
       y="0"
       x="0"
       style="fill:#ffffff"
       id="use3360"
       transform="translate(160,892.36216)" />
    <path
       inkscape:connector-curvature="0"
       style="fill:#ffffff;fill-opacity:1;stroke:none"
       id="path3364"
       d="m 64,916.36218 c 4,4 16,12 24,12 0,4 0,12 0,16 0,16 -12,40 -24,52 -12,-12 -24,-36 -24,-52 0,-4 0,-12 0,-16 8,0 20,-8 24,-12 z" />
  </g>
  <g
     style="fill:#ffffff"
     id="flame"
     transform="translate(0,-412.36211)">
    <use
       xlink:href="#rect3178"
       height="640"
       width="640"
       y="0"
       x="0"
       style="fill:#ffffff"
       id="use3376"
       transform="translate(320,892.36216)" />
    <g
       style="fill:#ffffff"
       id="g4276"
       transform="matrix(0.35081364,0,0,0.3125001,136.0068,1034.3819)">
      <path
         inkscape:connector-curvature="0"
         style="color:#000000;fill:#ffffff;fill-opacity:1;fill-rule:nonzero;stroke:none;stroke-width:5;marker:none;visibility:visible;display:inline;overflow:visible;enable-background:accumulate"
         id="path3768"
         d="m 205.21779,-326.463 c 0,63.99998 45.60826,63.99998 45.60826,102.39997 0,12.79999 -11.40206,38.39999 -34.20619,38.39999 -22.80413,0 -34.2062,-25.6 -22.80413,-63.99998 -22.80414,12.79999 -22.80414,38.39998 -22.80414,51.19998 0,38.39999 34.2062,76.79997 79.81446,76.79997 45.60826,0 79.81446,-25.59999 79.81446,-76.79997 0,-89.59997 -102.61859,-76.79998 -102.61859,-140.79996 0,-12.79999 11.40207,-25.59999 22.80413,-38.39998 -22.80413,0 -45.60826,25.59999 -45.60826,51.19998 z" />
    </g>
  </g>
  <path
     inkscape:connector-curvature="0"
     style="opacity:0.63999999;fill:#ff0000;fill-opacity:1;stroke:none"
     id="unused_border"
     d="m -96,160.00005 c -35.34622,0 -64,28.65378 -64,64 0,35.34622 28.65378,64.00002 64,64.00002 35.34622,0 64,-28.6538 64,-64.00002 0,-35.34622 -28.65378,-64 -64,-64 z m 0,24 c 22.09139,0 40,17.90861 40,40 0,22.09139 -17.90861,40 -40,40 -22.09139,0 -40,-17.90861 -40,-40 0,-22.09139 17.90861,-40 40,-40 z" />
  <g
     style="fill:#ffffff"
     id="capsule"
     transform="translate(0,-412.36211)">
    <use
       xlink:href="#rect3178"
       height="640"
       width="640"
       y="0"
       x="0"
       style="fill:#ffffff"
       id="use3095"
       transform="translate(320,412.36215)" />
    <path
       inkscape:connector-curvature="0"
       style="fill:#ffffff;fill-opacity:1;stroke:none"
       id="rect3105"
       d="m 224,436.36218 c 16,0 20,8 20,12 l 0,12 c 0,2.216 -1.784,4 -4,4 l -32,0 c -2.216,0 -4,-1.784 -4,-4 l 0,-12 c 0,-4 4,-12 20,-12 z" />
    <path
       inkscape:connector-curvature="0"
       style="fill:#ffffff;fill-opacity:1;stroke:none"
       id="rect3109"
       transform="translate(0,412.36218)"
       d="m 212,48 0,32 24,0 0,-32 -24,0 z m 8,4 8,0 0,24 -8,0 0,-24 z" />
    <path
       inkscape:connector-curvature="0"
       style="fill:#ffffff;fill-opacity:1;stroke:none"
       id="path3077"
       d="m 224,516.36218 c 16,0 20,-8 20,-12 l 0,-12 c 0,-2.216 -1.784,-4 -4,-4 l -32,0 c -2.216,0 -4,1.784 -4,4 l 0,12 c 0,4 4,12 20,12 z" />
  </g>
  <g
     style="fill:#ffffff"
     id="fire"
     transform="translate(0,-412.36211)">
    <use
       xlink:href="#rect3178"
       height="640"
       width="640"
       y="0"
       x="0"
       style="fill:#ffffff"
       id="use3317"
       transform="translate(480,732.36216)" />
    <g
       style="fill:#ffffff"
       id="g3114">
      <path
         inkscape:connector-curvature="0"
         style="fill:#ffffff;fill-opacity:1;stroke:none"
         id="path3325"
         d="m 384,828.36218 c 32,-28 8,-32 0,-72 -8,40 -32,44 0,72 z" />
      <path
         inkscape:connector-curvature="0"
         style="fill:#ffffff;fill-opacity:1;stroke:none"
         id="path3327"
         d="m 380,832.36218 c -24,-20 -16,-32 -16,-52 -4,12 -12,20 -12,32 0,12 16,20 28,20 z" />
      <path
         inkscape:connector-curvature="0"
         style="fill:#ffffff;fill-opacity:1;stroke:none"
         id="path3123"
         d="m 388,832.36218 c 24,-20 16,-32 16,-52 4,12 12,20 12,32 0,12 -16,20 -28,20 z" />
    </g>
  </g>
  <g
     style="fill:#ffffff"
     id="jet"
     transform="translate(0,-412.36211)">
    <use
       xlink:href="#rect3178"
       height="640"
       width="640"
       y="0"
       x="0"
       style="fill:#ffffff"
       id="use3081"
       transform="translate(480,892.36216)" />
    <path
       inkscape:connector-curvature="0"
       style="fill:#ffffff;fill-opacity:1;stroke:none"
       id="path3100"
       transform="matrix(0.9982351,0,0,-0.91428677,0.67772747,1406.4198)"
       d="m 383.99999,535.9999 c -12.02121,0 -28.0495,-30.62496 -28.0495,-43.74994 0,-4.375 16.07038,-4.35937 28.0495,-4.375 11.97913,-0.0156 28.04951,0 28.04951,4.375 0,13.12498 -16.02829,43.74994 -28.04951,43.74994 z" />
    <path
       inkscape:connector-curvature="0"
       style="fill:#ffffff;fill-opacity:1;stroke:none"
       id="path3106"
       transform="matrix(0.3565126,0,0,0.53333333,261.09916,706.49552)"
       d="m 384,536 c -6.9282,0 -31.17691,-42 -27.71281,-48 3.4641,-6 51.96152,-6 55.42562,0 3.4641,6 -20.78461,48 -27.71281,48 z" />
    <path
       inkscape:connector-curvature="0"
       style="fill:#ffffff;fill-opacity:1;stroke:none"
       id="path3112"
       transform="matrix(0.3565126,0,0,0.53333333,233.09916,706.49551)"
       d="m 384,536 c -6.9282,0 -31.17691,-42 -27.71281,-48 3.4641,-6 51.96152,-6 55.42562,0 3.4641,6 -20.78461,48 -27.71281,48 z" />
  </g>
  <g
     style="fill:#ffffff"
     id="unused_medpack"
     transform="translate(-640,-92.36211)">
    <use
       xlink:href="#rect3178"
       height="640"
       width="640"
       y="0"
       x="0"
       style="fill:#ffffff"
       id="use3126"
       transform="translate(640,732.36216)" />
    <path
       inkscape:connector-curvature="0"
       style="fill:#ffffff;fill-opacity:1;stroke:none"
       id="rect3138"
       transform="translate(0,412.36218)"
       d="m 520,356 c -4.432,0 -8,3.568 -8,8 l 0,40 c 0,4.432 3.568,8 8,8 l 48,0 c 4.432,0 8,-3.568 8,-8 l 0,-40 c 0,-4.432 -3.568,-8 -8,-8 l -48,0 z m 0,8 48,0 0,40 -48,0 0,-40 z" />
    <rect
       style="fill:#ffffff;fill-opacity:1;stroke:none"
       id="rect3134"
       y="792.36218"
       x="532"
       height="7.9999995"
       width="24" />
    <rect
       style="fill:#ffffff;fill-opacity:1;stroke:none"
       id="rect3136"
       transform="matrix(0,1,-1,0,0,0)"
       y="-548"
       x="784.36218"
       height="7.9999995"
       width="24.000002" />
  </g>
  <g
     style="fill:#ffffff"
     id="unused_battery"
     transform="translate(-640,-412.36211)">
    <use
       xlink:href="#rect3178"
       height="640"
       width="640"
       y="0"
       x="0"
       style="fill:#ffffff"
       id="use3140"
       transform="translate(640,892.36216)" />
    <path
       inkscape:connector-curvature="0"
       style="fill:#ffffff;fill-opacity:1;stroke:none"
       id="rect3144"
       transform="translate(0,412.36218)"
       d="m 524,512 c -4.432,0 -8,3.568 -8,8 l 0,48 c 0,4.432 3.568,8 8,8 l 40,0 c 4.432,0 8,-3.568 8,-8 l 0,-48 c 0,-4.432 -3.568,-8 -8,-8 l -40,0 z m 0,8 40,0 0,48 -40,0 0,-48 z" />
    <path
       inkscape:connector-curvature="0"
       style="fill:#ffffff;fill-opacity:1;stroke:none"
       id="rect3148"
       d="m 532,952.36218 12,2e-5 0,-16.00002 12,24 -12,2e-5 0,15.99998 z" />
    <rect
       style="fill:#ffffff;fill-opacity:1;stroke:none"
       id="rect3150"
       y="916.36218"
       x="532"
       ry="4.3571424"
       rx="8"
       height="12"
       width="23.999998" />
  </g>
  <g
     id="egg"
     transform="translate(864,-572.36211)">
    <use
       xlink:href="#rect3178"
       height="640"
       width="640"
       y="0"
       x="0"
       id="use3218"
       transform="translate(-64,732.36216)" />
    <path
       inkscape:connector-curvature="0"
       style="fill:#ffffff;fill-opacity:1;fill-rule:nonzero;stroke:none;display:inline"
       id="path4903"
       d="m -160,732.36218 c -24,0 -48,48 -48,80 0,24 16,48 48,48 32,0 48,-24 48,-48 0,-32 -24,-80 -48,-80 z" />
  </g>
  <path
     inkscape:connector-curvature="0"
     style="fill:#ffffff;fill-opacity:1;stroke:none"
     id="unused_hand"
     d="m -32,352.00007 c 0,0 -10.79615,22.752 -13.71752,34.397 -3.82113,15.2316 0.55396,26.7462 -4.99943,41.5147 -9.59944,17.3254 -10.2497,20.1244 -45.28305,20.0883 -12.83505,-0.013 -49.60537,-9.8033 -49.60537,-9.8033 -5.06942,-1.3031 -14.39463,-0.5348 -14.39463,-6.1967 0,-5.6618 6.63385,-9.7966 12.52499,-9.81 l 23.2079,2.0377 c 5.63766,-0.3535 11.54322,-3.656 11.7231,-11.0294 -0.0944,-10.9139 -1.17395,-19.2953 -6.71358,-28.1601 l -21.5125,-33.5635 c -1.28437,-2.6719 -1.58997,-7.228 2.12935,-9.262 3.71937,-2.034 7.94492,0.9894 9.38804,3.622 l 24.02883,32.6856 c 2.56514,2.3874 7.130286,2.8474 6.741069,-2.2352 l -10.610459,-48.6438 c -0.66082,-3.4559 1.09326,-7.6413 5.09326,-7.6413 5.25,0 8.478777,2.0043 8.377033,5.1771 l 11.667007,47.9955 c 0.91191,2.3362 4.14534,2.0238 5.01518,-0.1302 l 3.32308,-46.6728 c 0.17024,-1.4889 2.1126,-4.0836 5.83977,-3.5427 3.7272,0.5409 5.8764,4.5338 5.48168,6.0783 l -1.07812,46.1163 c 0.75674,4.0876 3.96991,4.6843 6.47062,2.4024 l 16.3257,-29.1965 c 0.99192,-2.4492 4.87654,-2.9593 7.12368,-1.9883 2.09048,1.3619 3.45437,3.1895 3.45437,5.7609 z" />
  <g
     style="fill:#ffffff"
     id="hand"
     transform="translate(640,-1084.3621)">
    <use
       xlink:href="#rect3178"
       height="640"
       width="640"
       y="0"
       x="0"
       style="fill:#ffffff"
       id="use3992"
       transform="translate(160,1084.3621)" />
    <path
       inkscape:connector-curvature="0"
       style="fill:#ffffff;fill-opacity:1;stroke:none"
       id="path3994"
       d="m 64,1084.3622 c -35.34622,0 -64,28.6538 -64,64 0,35.3462 28.65378,64 64,64 35.34622,0 64,-28.6538 64,-64 0,-35.3462 -28.65378,-64 -64,-64 z m 0,16 c 26.50967,0 48,21.4903 48,48 0,26.5096 -21.49033,48 -48,48 -26.50967,0 -48,-21.4904 -48,-48 0,-26.5097 21.49033,-48 48,-48 z" />
    <path
       inkscape:connector-curvature="0"
       style="fill:#ffffff;fill-opacity:1;stroke:none"
       id="path3998"
       d="m 96,1128.3619 c 0,0 -5.398082,11.376 -6.85877,17.1985 -1.910568,7.6159 0.782056,11.7317 -1.994643,19.1159 -1.199931,2.1657 2.581305,5.5559 2.495021,7.5301 -0.07279,1.6654 -6.601364,5.2091 -8.036782,5.9243 -1.435418,0.7152 -9.953067,3.8954 -12.395561,3.9069 -2.582265,0.012 -2.471635,-5.6711 -6.85081,-5.6756 -6.417538,-0.01 -23.161224,-4.9017 -23.161224,-4.9017 -2.534713,-0.6515 -7.197325,-0.2673 -7.197325,-3.0983 0,-2.831 3.316931,-4.8983 6.262505,-4.905 l 11.603965,1.0188 c 2.818836,-0.1768 5.771619,-1.828 5.86156,-5.5147 -0.0472,-5.4569 -0.586977,-9.6477 -3.356796,-14.0801 l -10.756265,-16.7817 c -0.642186,-1.336 -0.794986,-3.614 1.064677,-4.631 1.859687,-1.017 3.972465,0.4946 4.694027,1.811 l 12.014432,16.3428 c 1.282572,1.1937 3.565148,1.4237 3.37054,-1.1176 l -5.305238,-24.322 c -0.33041,-1.7279 0.546631,-3.8206 2.546633,-3.8206 2.625005,0 4.239395,1.0022 4.188523,2.5886 l 5.833513,23.9977 c 0.455955,1.1682 2.072673,1.012 2.507594,-0.066 l 1.661542,-23.3364 c 0.08512,-0.7445 1.056302,-2.0418 2.919889,-1.7714 1.863602,0.2705 2.938204,2.2669 2.740844,3.0392 l -0.53906,23.0582 c 0.37837,2.0438 1.984956,2.3421 3.235315,1.2012 l 8.162863,-14.5983 c 0.495959,-1.2246 2.438268,-1.4797 3.561846,-0.9942 1.04524,0.681 1.727185,1.5948 1.727185,2.8805 z" />
  </g>
  <g
     style="fill:#ffffff"
     id="medpack"
     transform="translate(0,-412.36211)">
    <use
       xlink:href="#rect3178"
       height="640"
       width="640"
       y="0"
       x="0"
       style="fill:#ffffff"
       id="use3232"
       transform="translate(640,732.36216)" />
    <path
       inkscape:connector-curvature="0"
       style="fill:#ffffff;fill-opacity:1;stroke:none"
       id="path3234"
       transform="translate(480,92.362183)"
       d="m 40,676 c -4.432,0 -8,3.568 -8,8 l 0,40 c 0,4.432 3.568,8 8,8 l 48,0 c 4.432,0 8,-3.568 8,-8 l 0,-40 c 0,-4.432 -3.568,-8 -8,-8 z m 16,8 16,0 0,12 12,0 0,16 -12,0 0,12 -16,0 0,-12 -12,0 0,-16 12,0 z" />
  </g>
  <g
     style="fill:#ffffff"
     id="battery"
     transform="matrix(-1,0,0,1,1088,-412.36211)">
    <use
       xlink:href="#rect3178"
       height="640"
       width="640"
       y="0"
       x="0"
       style="fill:#ffffff"
       id="use3244"
       transform="translate(640,892.36216)" />
    <path
       inkscape:connector-curvature="0"
       style="fill:#ffffff;fill-opacity:1;stroke:none"
       id="path3247"
       transform="translate(320,252.36218)"
       d="m 204,672 c -4.432,0 -8,3.568 -8,8 l 0,48 c 0,4.432 3.568,8 8,8 l 40,0 c 4.432,0 8,-3.568 8,-8 l 0,-48 c 0,-4.432 -3.568,-8 -8,-8 z m 20,8 16,28 -16,0 0,20 -16,-28 16,0 z" />
    <path
       inkscape:connector-curvature="0"
       style="fill:#ffffff;fill-opacity:1;stroke:none"
       id="rect3251"
       d="m 540,916.36218 8,0 c 2.216,0 8,1.784 8,4 l 0,8 -24,0 0,-8 c 0,-2.216 5.784,-4 8,-4 z" />
  </g>
  <g
     id="g3264"
     transform="translate(0,-412.36211)" />
  <g
     id="g3268"
     transform="matrix(0.70710678,0.70710678,-0.70710678,0.70710678,589.89867,-883.77912)" />
  <g
     style="fill:#ffffff"
     id="bolt"
     transform="matrix(-1,0,0,1,1568,-412.3622)">
    <use
       xlink:href="#rect3178"
       height="640"
       width="640"
       y="0"
       x="0"
       style="fill:#ffffff"
       id="use3359"
       transform="translate(640,892.36225)" />
    <path
       inkscape:connector-curvature="0"
       style="fill:#ffffff;fill-opacity:1;stroke:none"
       id="path3363"
       d="m 512,944.36218 32,0 0,-52 32,76 -32,0 0,52.00002 z" />
  </g>
  <g
     style="fill:#ffffff"
     id="cross"
     transform="translate(320,-732.36211)">
    <use
       xlink:href="#rect3178"
       height="640"
       width="640"
       y="0"
       x="0"
       style="fill:#ffffff"
       id="use3369"
       transform="translate(640,732.36216)" />
    <rect
       style="fill:#ffffff;fill-opacity:1;stroke:none"
       id="rect3376"
       transform="matrix(0,1,-1,0,0,0)"
       y="-568"
       x="732.36218"
       ry="8"
       rx="8"
       height="48"
       width="128" />
    <rect
       style="fill:#ffffff;fill-opacity:1;stroke:none"
       id="rect3378"
       transform="scale(-1,-1)"
       y="-820.36218"
       x="-608"
       ry="8"
       rx="8"
       height="47.999996"
       width="128.00012" />
  </g>
  <g
     id="credit"
     transform="translate(0,-412.36211)">
    <use
       xlink:href="#rect3178"
       height="640"
       width="640"
       y="0"
       x="0"
       id="use3220"
       transform="translate(800,732.36216)" />
    <path
       inkscape:connector-curvature="0"
       style="fill:#ffffff;fill-opacity:1;stroke:none"
       id="rect3406"
       transform="translate(0,412.36218)"
       d="m 672,320 c -8.864,0 -16,7.136 -16,16 l 0,96 c 0,8.864 7.136,16 16,16 l 64,0 c 8.864,0 16,-7.136 16,-16 l 0,-24 -32,0 0,8 -32,0 0,-64 32,0 0,8 32,0 0,-24 c 0,-8.864 -7.136,-16 -16,-16 z" />
  </g>
  <g
     id="laser"
     transform="translate(0,-412.36211)">
    <use
       xlink:href="#rect3178"
       height="640"
       width="640"
       y="0"
       x="0"
       style="fill:#ffffff"
       id="use3333"
       transform="translate(640,572.36216)" />
    <path
       inkscape:connector-curvature="0"
       style="fill:#ffffff;fill-opacity:1;stroke:none"
       id="path3425"
       transform="translate(0,412.36218)"
       d="m 544,192 c -17.67311,0 -32,14.32689 -32,32 0,17.67311 14.32689,32 32,32 17.67311,0 32,-14.32689 32,-32 0,-17.67311 -14.32689,-32 -32,-32 z m 0,16 c 8.83656,0 16,7.16344 16,16 0,8.83656 -7.16344,16 -16,16 -8.83656,0 -16,-7.16344 -16,-16 0,-8.83656 7.16344,-16 16,-16 z" />
    <rect
       style="fill:#ffffff;fill-opacity:1;stroke:none"
       id="rect3432"
       transform="matrix(0,1,-1,0,0,0)"
       y="-548"
       x="644.36218"
       height="8"
       width="32.000004" />
    <rect
       style="fill:#ffffff;fill-opacity:1;stroke:none"
       id="rect3434"
       transform="matrix(0,1,-1,0,0,0)"
       y="-548"
       x="596.36218"
       height="8"
       width="31.999998" />
  </g>
  <g
     id="net"
     transform="matrix(0,-1,1,0,-412.36218,608.00009)">
    <use
       xlink:href="#rect3178"
       height="640"
       width="640"
       y="0"
       x="0"
       style="fill:#ffffff"
       id="use3233"
       transform="translate(159.99997,1052.3621)" />
    <path
       inkscape:connector-curvature="0"
       style="fill:#ffffff;fill-opacity:1;stroke:none"
       id="path3236"
       transform="translate(0,412.36218)"
       d="m 64,656 c -17.67311,0 -32,14.3269 -32,32 l 64,0 C 96,670.3269 81.67311,656 64,656 z" />
    <path
       inkscape:connector-curvature="0"
       style="fill:#ffffff;fill-opacity:1;stroke:none"
       id="rect3238"
       transform="translate(0,412.36218)"
       d="m 36,740 c -2.216,0 -4,1.784 -4,4 l 0,24 64,0 0,-24 c 0,-2.216 -1.784,-4 -4,-4 l -8,0 0,8 -8,0 0,-8 -24,0 0,8 -8,0 0,-8 z" />
    <rect
       style="fill:#ffffff;fill-opacity:1;stroke:none"
       id="rect3240"
       transform="matrix(0,1,-1,0,0,0)"
       y="-68"
       x="1052.3622"
       height="8"
       width="19.999994" />
    <path
       inkscape:connector-curvature="0"
       style="fill:#ffffff;fill-opacity:1;stroke:none"
       id="path3262"
       d="m 32,1100.3622 0,4 c 0,2.216 1.784,4 4,4 l 56,0 c 2.216,0 4,-1.784 4,-4 l 0,-4 -64,0 z" />
    <rect
       style="fill:#ffffff;fill-opacity:1;stroke:none"
       id="rect3264"
       transform="matrix(0,1,-1,0,0,0)"
       y="-52"
       x="1100.3622"
       height="8"
       width="19.999994" />
    <rect
       style="fill:#ffffff;fill-opacity:1;stroke:none"
       id="rect3266"
       transform="matrix(0,1,-1,0,0,0)"
       y="-84"
       x="1100.3622"
       height="8"
       width="19.999994" />
  </g>
  <g
     id="pie_4"
     transform="matrix(2,0,0,2,-1760,519.27563)">
    <use
       xlink:href="#rect3178"
       height="640"
       width="640"
       y="0"
       x="0"
       style="fill:#ffffff"
       id="use3241"
       transform="translate(1600,220.36217)" />
    <path
       inkscape:connector-curvature="0"
       style="fill:#ffffff;fill-opacity:1;stroke:none"
       id="path3372"
       transform="translate(0,412.36218)"
       d="m 1508,-191.84375 -1,15.9375 c 11.0016,0.67922 20.9865,5.07989 28.75,11.9375 l 10.5938,-12 c -10.3508,-9.13127 -23.6828,-14.9671 -38.3438,-15.875 z m 43.9688,21.53125 -12,10.5625 c 6.8596,7.76305 11.2252,17.74961 11.9062,28.75 l 16,-1 c -0.906,-14.66378 -6.7618,-27.96864 -15.9062,-38.3125 z m -0.063,45.3125 c -0.6789,11.00153 -5.08,20.98647 -11.9374,28.75 l 12,10.59375 c 9.1309,-10.35026 14.9666,-23.6827 15.875,-38.34375 z m -16.1562,32.96875 c -7.7631,6.85987 -17.7496,11.22525 -28.75,11.90625 l 1,16 c 14.6638,-0.90601 27.9686,-6.76178 38.3125,-15.90625 z" />
  </g>
  <g
     id="pie_8"
     transform="matrix(2,0,0,2,-1440,519.27563)">
    <use
       xlink:href="#rect3178"
       height="640"
       width="640"
       y="0"
       x="0"
       style="fill:#ffffff"
       id="use3384"
       transform="translate(1600,220.36217)" />
    <path
       inkscape:connector-curvature="0"
       style="fill:#ffffff;fill-opacity:1;stroke:none"
       id="path3386"
       transform="translate(0,412.36218)"
       d="m 1500,-191.84375 c -14.6529,0.9074 -27.9649,6.74863 -38.3125,15.875 l 10.5625,12 c 7.7623,-6.85524 17.7516,-11.25847 28.75,-11.9375 l -1,-15.9375 z m 8,0 -1,15.9375 c 11.0016,0.67922 20.9865,5.07989 28.75,11.9375 l 10.5938,-12 c -10.3508,-9.13127 -23.6828,-14.9671 -38.3438,-15.875 z m -51.9688,21.53125 c -9.1412,10.34327 -14.9977,23.65293 -15.9062,38.3125 l 15.9688,1 c 0.6793,-10.99819 5.0824,-20.98756 11.9374,-28.75 l -12,-10.5625 z m 95.9376,0 -12,10.5625 c 6.8596,7.76305 11.2252,17.74961 11.9062,28.75 l 16,-1 c -0.906,-14.66378 -6.7618,-27.96864 -15.9062,-38.3125 z m -95.875,45.3125 -15.9688,1 c 0.9085,14.65958 6.765,27.96923 15.9062,38.3125 l 12,-10.5625 c -6.855,-7.76244 -11.2581,-17.75181 -11.9374,-28.75 z m 95.8124,0 c -0.6789,11.00153 -5.08,20.98647 -11.9374,28.75 l 12,10.59375 c 9.1309,-10.35026 14.9666,-23.6827 15.875,-38.34375 l -15.9376,-1 z m -79.6562,32.96875 -10.5625,12 c 10.3476,9.126364 23.6596,14.967604 38.3125,15.875 l 1,-15.9375 c -10.9984,-0.679026 -20.9877,-5.082255 -28.75,-11.9375 z m 63.5,0 c -7.7631,6.85987 -17.7496,11.22525 -28.75,11.90625 l 1,16 c 14.6638,-0.90601 27.9686,-6.76178 38.3125,-15.90625 l -10.5625,-12 z" />
  </g>
  <g
     id="pie_3"
     transform="matrix(2,0,0,2,-1760,199.27563)">
    <use
       xlink:href="#rect3178"
       height="640"
       width="640"
       y="0"
       x="0"
       style="fill:#ffffff"
       id="use3390"
       transform="translate(1600,220.36217)" />
    <path
       inkscape:connector-curvature="0"
       style="fill:#ffffff;fill-opacity:1;stroke:none"
       id="path3392"
       transform="translate(0,412.36218)"
       d="m 1508,-191.84375 -1,15.9375 c 11.0016,0.67922 20.9865,5.07989 28.75,11.9375 l 10.5938,-12 c -10.3508,-9.13127 -23.6828,-14.9671 -38.3438,-15.875 z m 43.9688,21.53125 -12,10.5625 c 6.8596,7.76305 11.2252,17.74961 11.9062,28.75 l 16,-1 c -0.906,-14.66378 -6.7618,-27.96864 -15.9062,-38.3125 z m -0.063,45.3125 c -0.6789,11.00153 -5.08,20.98647 -11.9374,28.75 l 12,10.59375 c 9.1309,-10.35026 14.9666,-23.6827 15.875,-38.34375 z" />
  </g>
  <g
     id="pie_7"
     transform="matrix(2,0,0,2,-1440,199.27563)">
    <use
       xlink:href="#rect3178"
       height="640"
       width="640"
       y="0"
       x="0"
       style="fill:#ffffff"
       id="use3396"
       transform="translate(1600,220.36217)" />
    <path
       inkscape:connector-curvature="0"
       style="fill:#ffffff;fill-opacity:1;stroke:none"
       id="path3398"
       transform="translate(0,412.36218)"
       d="m 1508,-191.84375 -1,15.9375 c 11.0016,0.67922 20.9865,5.07989 28.75,11.9375 l 10.5938,-12 c -10.3508,-9.13127 -23.6828,-14.9671 -38.3438,-15.875 z m -51.9688,21.53125 c -9.1412,10.34327 -14.9977,23.65293 -15.9062,38.3125 l 15.9688,1 c 0.6793,-10.99819 5.0824,-20.98756 11.9374,-28.75 z m 95.9376,0 -12,10.5625 c 6.8596,7.76305 11.2252,17.74961 11.9062,28.75 l 16,-1 c -0.906,-14.66378 -6.7618,-27.96864 -15.9062,-38.3125 z m -95.875,45.3125 -15.9688,1 c 0.9085,14.65958 6.765,27.96923 15.9062,38.3125 l 12,-10.5625 c -6.855,-7.76244 -11.2581,-17.75181 -11.9374,-28.75 z m 95.8124,0 c -0.6789,11.00153 -5.08,20.98647 -11.9374,28.75 l 12,10.59375 c 9.1309,-10.35026 14.9666,-23.6827 15.875,-38.34375 z m -79.6562,32.96875 -10.5625,12 c 10.3476,9.126364 23.6596,14.967604 38.3125,15.875 l 1,-15.9375 c -10.9984,-0.679026 -20.9877,-5.082255 -28.75,-11.9375 z m 63.5,0 c -7.7631,6.85987 -17.7496,11.22525 -28.75,11.90625 l 1,16 c 14.6638,-0.90601 27.9686,-6.76178 38.3125,-15.90625 z" />
  </g>
  <g
     id="pie_2"
     transform="matrix(2,0,0,2,-1760,-120.72437)">
    <use
       xlink:href="#rect3178"
       height="640"
       width="640"
       y="0"
       x="0"
       style="fill:#ffffff"
       id="use3402"
       transform="translate(1600,220.36217)" />
    <path
       inkscape:connector-curvature="0"
       style="fill:#ffffff;fill-opacity:1;stroke:none"
       id="path3404"
       transform="translate(0,412.36218)"
       d="m 1508,-191.84375 -1,15.9375 c 11.0016,0.67922 20.9865,5.07989 28.75,11.9375 l 10.5938,-12 c -10.3508,-9.13127 -23.6828,-14.9671 -38.3438,-15.875 z m 43.9688,21.53125 -12,10.5625 c 6.8596,7.76305 11.2252,17.74961 11.9062,28.75 l 16,-1 c -0.906,-14.66378 -6.7618,-27.96864 -15.9062,-38.3125 z" />
  </g>
  <g
     id="pie_6"
     transform="matrix(2,0,0,2,-1440,-120.72437)">
    <use
       xlink:href="#rect3178"
       height="640"
       width="640"
       y="0"
       x="0"
       style="fill:#ffffff"
       id="use3408"
       transform="translate(1600,220.36217)" />
    <path
       inkscape:connector-curvature="0"
       style="fill:#ffffff;fill-opacity:1;stroke:none"
       id="path3410"
       transform="translate(0,412.36218)"
       d="m 1508,-191.84375 -1,15.9375 c 11.0016,0.67922 20.9865,5.07989 28.75,11.9375 l 10.5938,-12 c -10.3508,-9.13127 -23.6828,-14.9671 -38.3438,-15.875 z m 43.9688,21.53125 -12,10.5625 c 6.8596,7.76305 11.2252,17.74961 11.9062,28.75 l 16,-1 c -0.906,-14.66378 -6.7618,-27.96864 -15.9062,-38.3125 z m -95.875,45.3125 -15.9688,1 c 0.9085,14.65958 6.765,27.96923 15.9062,38.3125 l 12,-10.5625 c -6.855,-7.76244 -11.2581,-17.75181 -11.9374,-28.75 z m 95.8124,0 c -0.6789,11.00153 -5.08,20.98647 -11.9374,28.75 l 12,10.59375 c 9.1309,-10.35026 14.9666,-23.6827 15.875,-38.34375 z m -79.6562,32.96875 -10.5625,12 c 10.3476,9.126364 23.6596,14.967604 38.3125,15.875 l 1,-15.9375 c -10.9984,-0.679026 -20.9877,-5.082255 -28.75,-11.9375 z m 63.5,0 c -7.7631,6.85987 -17.7496,11.22525 -28.75,11.90625 l 1,16 c 14.6638,-0.90601 27.9686,-6.76178 38.3125,-15.90625 z" />
  </g>
  <g
     id="pie_1"
     transform="matrix(2,0,0,2,-1760,-440.72437)">
    <use
       xlink:href="#rect3178"
       height="640"
       width="640"
       y="0"
       x="0"
       style="fill:#ffffff"
       id="use3414"
       transform="translate(1600,220.36217)" />
    <path
       inkscape:connector-curvature="0"
       style="fill:#ffffff;fill-opacity:1;stroke:none"
       id="path3416"
       transform="translate(0,412.36218)"
       d="m 1508,-191.84375 -1,15.9375 c 11.0016,0.67922 20.9865,5.07989 28.75,11.9375 l 10.5938,-12 c -10.3508,-9.13127 -23.6828,-14.9671 -38.3438,-15.875 z" />
  </g>
  <g
     id="pie_5"
     transform="matrix(2,0,0,2,-1440,-440.72437)">
    <use
       xlink:href="#rect3178"
       height="640"
       width="640"
       y="0"
       x="0"
       style="fill:#ffffff"
       id="use3420"
       transform="translate(1600,220.36217)" />
    <path
       inkscape:connector-curvature="0"
       style="fill:#ffffff;fill-opacity:1;stroke:none"
       id="path3422"
       transform="translate(0,412.36218)"
       d="m 1508,-191.84375 -1,15.9375 c 11.0016,0.67922 20.9865,5.07989 28.75,11.9375 l 10.5938,-12 c -10.3508,-9.13127 -23.6828,-14.9671 -38.3438,-15.875 z m 43.9688,21.53125 -12,10.5625 c 6.8596,7.76305 11.2252,17.74961 11.9062,28.75 l 16,-1 c -0.906,-14.66378 -6.7618,-27.96864 -15.9062,-38.3125 z m -0.063,45.3125 c -0.6789,11.00153 -5.08,20.98647 -11.9374,28.75 l 12,10.59375 c 9.1309,-10.35026 14.9666,-23.6827 15.875,-38.34375 z m -79.6562,32.96875 -10.5625,12 c 10.3476,9.126364 23.6596,14.967604 38.3125,15.875 l 1,-15.9375 c -10.9984,-0.679026 -20.9877,-5.082255 -28.75,-11.9375 z m 63.5,0 c -7.7631,6.85987 -17.7496,11.22525 -28.75,11.90625 l 1,16 c 14.6638,-0.90601 27.9686,-6.76178 38.3125,-15.90625 z" />
  </g>
  <g
     id="stamina_1"
     transform="matrix(2,0,0,2,-2880,359.2757)">
    <use
       xlink:href="#rect3178"
       height="640"
       width="640"
       y="0"
       x="0"
       style="fill:#ffffff"
       id="use3426"
       transform="translate(1600,220.36213)" />
    <path
       inkscape:connector-curvature="0"
       style="fill:#ffffff;fill-opacity:1;stroke:none"
       id="path3428"
       transform="translate(0,412.36218)"
       d="m 1500,-191.84375 c -14.6529,0.9074 -27.9649,6.74863 -38.3125,15.875 l 10.5625,12 c 7.7623,-6.85524 17.7516,-11.25847 28.75,-11.9375 z" />
  </g>
  <g
     id="stamina_2"
     transform="matrix(2,0,0,2,-2592,359.27563)">
    <use
       xlink:href="#rect3178"
       height="640"
       width="640"
       y="0"
       x="0"
       style="fill:#ffffff"
       id="use3432"
       transform="translate(1600,220.36217)" />
    <path
       inkscape:connector-curvature="0"
       style="fill:#ffffff;fill-opacity:1;stroke:none"
       id="path3434"
       transform="translate(0,412.36218)"
       d="m 1456.0312,-170.3125 c -9.1412,10.34327 -14.9977,23.65293 -15.9062,38.3125 l 15.9688,1 c 0.6793,-10.99819 5.0824,-20.98756 11.9374,-28.75 z" />
  </g>
  <g
     id="stamina_4"
     transform="matrix(2,0,0,2,-2592,647.27569)">
    <use
       xlink:href="#rect3178"
       height="640"
       width="640"
       y="0"
       x="0"
       style="fill:#ffffff"
       id="use3444"
       transform="translate(1600,220.36214)" />
    <path
       inkscape:connector-curvature="0"
       style="fill:#ffffff;fill-opacity:1;stroke:none"
       id="path3446"
       transform="translate(0,412.36218)"
       d="m 1508,-191.84375 -1,15.9375 c 11.0016,0.67922 20.9865,5.07989 28.75,11.9375 l 10.5938,-12 c -10.3508,-9.13127 -23.6828,-14.9671 -38.3438,-15.875 z m 43.9688,21.53125 -12,10.5625 c 6.8596,7.76305 11.2252,17.74961 11.9062,28.75 l 16,-1 c -0.906,-14.66378 -6.7618,-27.96864 -15.9062,-38.3125 z m -0.063,45.3125 c -0.6789,11.00153 -5.08,20.98647 -11.9374,28.75 l 12,10.59375 c 9.1309,-10.35026 14.9666,-23.6827 15.875,-38.34375 z m -79.6562,32.96875 -10.5625,12 c 10.3476,9.126364 23.6596,14.967604 38.3125,15.875 l 1,-15.9375 c -10.9984,-0.679026 -20.9877,-5.082255 -28.75,-11.9375 z m 63.5,0 c -7.7631,6.85987 -17.7496,11.22525 -28.75,11.90625 l 1,16 c 14.6638,-0.90601 27.9686,-6.76178 38.3125,-15.90625 z" />
  </g>
  <g
     id="ring"
     transform="matrix(2,0,0,2,-1152,519.2757)">
    <use
       xlink:href="#rect3178"
       height="640"
       width="640"
       y="0"
       x="0"
       style="fill:#ffffff"
       id="use3450"
       transform="translate(1600,220.36213)" />
    <path
       inkscape:connector-curvature="0"
       style="fill:#ffffff;fill-opacity:1;stroke:none"
       id="path3452"
       transform="translate(0,412.36218)"
       d="m 1500,-191.84375 c -14.6529,0.9074 -27.9649,6.74863 -38.3125,15.875 l 10.5625,12 c 7.7623,-6.85524 17.7516,-11.25847 28.75,-11.9375 l -1,-15.9375 z m 8,0 -1,15.9375 c 11.0016,0.67922 20.9865,5.07989 28.75,11.9375 l 10.5938,-12 c -10.3508,-9.13127 -23.6828,-14.9671 -38.3438,-15.875 z m -51.9688,21.53125 c -9.1412,10.34327 -14.9977,23.65293 -15.9062,38.3125 l 15.9688,1 c 0.6793,-10.99819 5.0824,-20.98756 11.9374,-28.75 l -12,-10.5625 z m 95.9376,0 -12,10.5625 c 6.8596,7.76305 11.2252,17.74961 11.9062,28.75 l 16,-1 c -0.906,-14.66378 -6.7618,-27.96864 -15.9062,-38.3125 z m -95.875,45.3125 -15.9688,1 c 0.9085,14.65958 6.765,27.96923 15.9062,38.3125 l 12,-10.5625 c -6.855,-7.76244 -11.2581,-17.75181 -11.9374,-28.75 z m 95.8124,0 c -0.6789,11.00153 -5.08,20.98647 -11.9374,28.75 l 12,10.59375 c 9.1309,-10.35026 14.9666,-23.6827 15.875,-38.34375 l -15.9376,-1 z m -79.6562,32.96875 -10.5625,12 c 10.3476,9.126364 23.6596,14.967604 38.3125,15.875 l 1,-15.9375 c -10.9984,-0.679026 -20.9877,-5.082255 -28.75,-11.9375 z m 63.5,0 c -7.7631,6.85987 -17.7496,11.22525 -28.75,11.90625 l 1,16 c 14.6638,-0.90601 27.9686,-6.76178 38.3125,-15.90625 l -10.5625,-12 z" />
  </g>
  <g
     style="fill:#ffffff"
     id="coss_a1"
     transform="translate(800,-732.36211)">
    <use
       xlink:href="#rect3178"
       height="640"
       width="640"
       y="0"
       x="0"
       style="fill:#ffffff"
       id="use3533"
       transform="translate(320,732.36225)" />
    <path
       inkscape:connector-curvature="0"
       style="fill:#ffffff;fill-opacity:1;stroke:none"
       id="path3535"
       d="m 224,732.36218 c -2,18 -10,40 -10,48 0,4 4,8 10,8 6,0 10,-4 10,-8 0,-8 -8,-30 -10,-48 z" />
    <path
       inkscape:connector-curvature="0"
       style="fill:#ffffff;fill-opacity:1;stroke:none"
       id="path3537"
       d="m 288,796.36218 c -18,-2 -40,-10 -48,-10 -4,0 -8,4 -8,10 0,6 4,10 8,10 8,0 30,-8 48,-10 z" />
    <path
       inkscape:connector-curvature="0"
       style="fill:#ffffff;fill-opacity:1;stroke:none"
       id="path3539"
       d="m 224,860.36218 c 2,-18 10,-40 10,-48 0,-4 -4,-8 -10,-8 -6,0 -10,4 -10,8 0,8 8,30 10,48 z" />
    <path
       inkscape:connector-curvature="0"
       style="fill:#ffffff;fill-opacity:1;stroke:none"
       id="path3541"
       d="m 160,796.36218 c 18,2 40,10 48,10 4,0 8,-4 8,-10 0,-6 -4,-10 -8,-10 -8,0 -30,8 -48,10 z" />
  </g>
  <g
     style="fill:#ffffff"
     id="cross_a2"
     transform="translate(800,-572.36211)">
    <use
       xlink:href="#rect3178"
       height="640"
       width="640"
       y="0"
       x="0"
       style="fill:#ffffff"
       id="use3569"
       transform="translate(320,732.36225)" />
    <path
       inkscape:connector-curvature="0"
       style="fill:#ffffff;fill-opacity:1;stroke:none"
       id="path3571"
       d="m 224,732.36218 c -2,18 -10,40 -10,48 0,4 4,8 10,8 6,0 10,-4 10,-8 0,-8 -8,-30 -10,-48 z" />
    <path
       inkscape:connector-curvature="0"
       style="fill:#ffffff;fill-opacity:1;stroke:none"
       id="path3573"
       d="m 288,796.36218 c -18,-2 -40,-10 -48,-10 -4,0 -8,4 -8,10 0,6 4,10 8,10 8,0 30,-8 48,-10 z" />
    <path
       inkscape:connector-curvature="0"
       style="fill:#ffffff;fill-opacity:1;stroke:none"
       id="path3575"
       d="m 224,860.36218 c 2,-18 10,-40 10,-48 0,-4 -4,-8 -10,-8 -6,0 -10,4 -10,8 0,8 8,30 10,48 z" />
    <path
       inkscape:connector-curvature="0"
       style="fill:#ffffff;fill-opacity:1;stroke:none"
       id="path3577"
       d="m 160,796.36218 c 18,2 40,10 48,10 4,0 8,-4 8,-10 0,-6 -4,-10 -8,-10 -8,0 -30,8 -48,10 z" />
    <path
       inkscape:connector-curvature="0"
       style="fill:#ffffff;fill-opacity:1;stroke:none"
       id="path3581"
       d="m 266.42641,753.93577 c -22.62742,16.97057 -22.62742,16.97057 -25.45585,19.79899 -2.82842,2.82843 -5.65685,5.65686 -2.82842,8.48528 2.82844,2.82842 5.65685,0 8.48528,-2.82842 2.82842,-2.82843 2.82842,-2.82843 19.79899,-25.45585 z" />
    <path
       inkscape:connector-curvature="0"
       style="fill:#ffffff;fill-opacity:1;stroke:none"
       id="path3639"
       d="m 181.57359,753.93577 c 16.97057,22.62742 16.97057,22.62742 19.79899,25.45585 2.82843,2.82842 5.65686,5.65685 8.48528,2.82842 2.82842,-2.82844 0,-5.65685 -2.82842,-8.48528 -2.82843,-2.82842 -2.82843,-2.82842 -25.45585,-19.79899 z" />
    <path
       inkscape:connector-curvature="0"
       style="fill:#ffffff;fill-opacity:1;stroke:none"
       id="path3641"
       d="m 181.57359,838.78859 c 22.62742,-16.97057 22.62742,-16.97057 25.45585,-19.79899 2.82842,-2.82843 5.65685,-5.65686 2.82842,-8.48528 -2.82844,-2.82842 -5.65685,0 -8.48528,2.82842 -2.82842,2.82843 -2.82842,2.82843 -19.79899,25.45585 z" />
    <path
       inkscape:connector-curvature="0"
       style="fill:#ffffff;fill-opacity:1;stroke:none"
       id="path3643"
       d="m 266.42641,838.78859 c -16.97057,-22.62742 -16.97057,-22.62742 -19.79899,-25.45585 -2.82843,-2.82842 -5.65686,-5.65685 -8.48528,-2.82842 -2.82842,2.82844 0,5.65685 2.82842,8.48528 2.82843,2.82842 2.82843,2.82842 25.45585,19.79899 z" />
  </g>
  <g
     style="fill:#ffffff"
     id="cross_a3"
     transform="translate(800,-412.36211)">
    <use
       xlink:href="#rect3178"
       height="640"
       width="640"
       y="0"
       x="0"
       style="fill:#ffffff"
       id="use3605"
       transform="translate(320,732.36225)" />
    <path
       inkscape:connector-curvature="0"
       style="fill:#ffffff;fill-opacity:1;stroke:none"
       id="path3607"
       d="m 224,732.36218 c -2,18 -10,40 -10,48 0,4 4,8 10,8 6,0 10,-4 10,-8 0,-8 -8,-30 -10,-48 z" />
    <path
       inkscape:connector-curvature="0"
       style="fill:#ffffff;fill-opacity:1;stroke:none"
       id="path3609"
       d="m 288,796.36218 c -18,-2 -40,-10 -48,-10 -4,0 -8,4 -8,10 0,6 4,10 8,10 8,0 30,-8 48,-10 z" />
    <path
       inkscape:connector-curvature="0"
       style="fill:#ffffff;fill-opacity:1;stroke:none"
       id="path3611"
       d="m 224,860.36218 c 2,-18 10,-40 10,-48 0,-4 -4,-8 -10,-8 -6,0 -10,4 -10,8 0,8 8,30 10,48 z" />
    <path
       inkscape:connector-curvature="0"
       style="fill:#ffffff;fill-opacity:1;stroke:none"
       id="path3613"
       d="m 160,796.36218 c 18,2 40,10 48,10 4,0 8,-4 8,-10 0,-6 -4,-10 -8,-10 -8,0 -30,8 -48,10 z" />
    <path
       inkscape:connector-curvature="0"
       style="fill:#ffffff;fill-opacity:1;stroke:none"
       id="path3623"
       d="m 254,848.3237 c -7.26795,-16.58845 -6.5359,-19.3205 -8.5359,-22.78461 -2,-3.4641 -4,-6.9282 -7.4641,-4.9282 -3.4641,2 -1.4641,5.4641 0.5359,8.9282 2,3.46411 4.73205,4.19616 15.4641,18.78461 z" />
    <path
       inkscape:connector-curvature="0"
       style="fill:#ffffff;fill-opacity:1;stroke:none"
       id="path3625"
       d="m 194,848.3237 c 10.73205,-14.58845 13.4641,-15.3205 15.4641,-18.78461 2,-3.4641 4,-6.9282 0.5359,-8.9282 -3.4641,-2 -5.4641,1.4641 -7.4641,4.9282 -2,3.46411 -1.26795,6.19616 -8.5359,22.78461 z" />
    <path
       inkscape:connector-curvature="0"
       style="fill:#ffffff;fill-opacity:1;stroke:none"
       id="path3627"
       d="m 172.03848,826.36218 c 16.58845,-7.26795 19.3205,-6.5359 22.78461,-8.5359 3.4641,-2 6.9282,-4 4.9282,-7.4641 -2,-3.4641 -5.4641,-1.4641 -8.9282,0.5359 -3.46411,2 -4.19616,4.73205 -18.78461,15.4641 z" />
    <path
       inkscape:connector-curvature="0"
       style="fill:#ffffff;fill-opacity:1;stroke:none"
       id="path3629"
       d="m 275.96152,826.36218 c -14.58845,-10.73205 -15.3205,-13.4641 -18.78461,-15.4641 -3.4641,-2 -6.9282,-4 -8.9282,-0.5359 -2,3.4641 1.4641,5.4641 4.9282,7.4641 3.46411,2 6.19616,1.26795 22.78461,8.5359 z" />
    <path
       inkscape:connector-curvature="0"
       style="fill:#ffffff;fill-opacity:1;stroke:none"
       id="path3631"
       d="m 172.03848,766.36218 c 14.58845,10.73205 15.3205,13.4641 18.78461,15.4641 3.4641,2 6.9282,4 8.9282,0.5359 2,-3.4641 -1.4641,-5.4641 -4.9282,-7.4641 -3.46411,-2 -6.19616,-1.26795 -22.78461,-8.5359 z" />
    <path
       inkscape:connector-curvature="0"
       style="fill:#ffffff;fill-opacity:1;stroke:none"
       id="path3633"
       d="m 194,744.40066 c 7.26795,16.58845 6.5359,19.3205 8.5359,22.78461 2,3.4641 4,6.9282 7.4641,4.9282 3.4641,-2 1.4641,-5.4641 -0.5359,-8.9282 -2,-3.46411 -4.73205,-4.19616 -15.4641,-18.78461 z" />
    <path
       inkscape:connector-curvature="0"
       style="fill:#ffffff;fill-opacity:1;stroke:none"
       id="path3635"
       d="m 275.96152,766.36218 c -16.58845,7.26795 -19.3205,6.5359 -22.78461,8.5359 -3.4641,2 -6.9282,4 -4.9282,7.4641 2,3.4641 5.4641,1.4641 8.9282,-0.5359 3.46411,-2 4.19616,-4.73205 18.78461,-15.4641 z" />
    <path
       inkscape:connector-curvature="0"
       style="fill:#ffffff;fill-opacity:1;stroke:none"
       id="path3637"
       d="m 254,744.40066 c -10.73205,14.58845 -13.4641,15.3205 -15.4641,18.78461 -2,3.4641 -4,6.9282 -0.5359,8.9282 3.4641,2 5.4641,-1.4641 7.4641,-4.9282 2,-3.46411 1.26795,-6.19616 8.5359,-22.78461 z" />
  </g>
  <g
     id="stamina_3"
     transform="matrix(2,0,0,-2,-2880,1784.7244)">
    <use
       xlink:href="#rect3178"
       height="640"
       width="640"
       y="0"
       x="0"
       style="fill:#ffffff"
       id="use3684"
       transform="translate(1600,220.36207)" />
    <path
       inkscape:connector-curvature="0"
       style="fill:#ffffff;fill-opacity:1;stroke:none"
       id="path3686"
       transform="translate(0,412.36218)"
       d="m 1456.0312,-170.3125 c -9.1412,10.34327 -14.9977,23.65293 -15.9062,38.3125 l 15.9688,1 c 0.6793,-10.99819 5.0824,-20.98756 11.9374,-28.75 z" />
  </g>
  <g
     style="fill:#ffffff"
     id="cross_down"
     transform="translate(320,-572.36211)">
    <use
       xlink:href="#rect3178"
       height="640"
       width="640"
       y="0"
       x="0"
       style="fill:#ffffff"
       id="use3258"
       transform="translate(640,732.36216)" />
    <path
       inkscape:connector-curvature="0"
       style="fill:#ffffff;fill-opacity:1;stroke:none"
       id="rect3260"
       transform="translate(-672,572.36218)"
       d="m 1200,160 c -4.432,0 -8,3.568 -8,8 l 0,32 -32,0 c -4.432,0 -8,3.568 -8,8 l 0,32 c 0,4.432 3.568,8 8,8 l 32,0 0,32 c 0,4.432 3.568,8 8,8 l 32,0 c 4.432,0 8,-3.568 8,-8 l 0,-32 32,0 c 4.432,0 8,-3.568 8,-8 l 0,-32 c 0,-4.432 -3.568,-8 -8,-8 l -32,0 0,-32 c 0,-4.432 -3.568,-8 -8,-8 z m 0,36 32,0 -16,16 z m 0,20 32,0 -16,16 z m 0,20 32,0 -16,16 z" />
  </g>
  <g
     style="fill:#ffffff"
     id="cross_up"
     transform="matrix(1,0,0,-1,320,1180.3623)">
    <use
       xlink:href="#rect3178"
       height="640"
       width="640"
       y="0"
       x="0"
       style="fill:#ffffff"
       id="use3290"
       transform="translate(640,732.36211)" />
    <path
       inkscape:connector-curvature="0"
       style="fill:#ffffff;fill-opacity:1;stroke:none"
       id="path3292"
       transform="translate(-672,572.36218)"
       d="m 1200,160 c -4.432,0 -8,3.568 -8,8 l 0,32 -32,0 c -4.432,0 -8,3.568 -8,8 l 0,32 c 0,4.432 3.568,8 8,8 l 32,0 0,32 c 0,4.432 3.568,8 8,8 l 32,0 c 4.432,0 8,-3.568 8,-8 l 0,-32 32,0 c 4.432,0 8,-3.568 8,-8 l 0,-32 c 0,-4.432 -3.568,-8 -8,-8 l -32,0 0,-32 c 0,-4.432 -3.568,-8 -8,-8 z m 0,36 32,0 -16,16 z m 0,20 32,0 -16,16 z m 0,20 32,0 -16,16 z" />
  </g>
  <path
     inkscape:connector-curvature="0"
     style="fill:#ffffff;fill-opacity:1;stroke:none"
     id="fps"
     d="m 800,512.00007 0,64 12,0 0,-24 20,0 0,-12 -20,0 0,-16 28,0 0,-12 c -13.33333,0 -26.66667,0 -40,0 z m 44,0 0,64 12,0 0,-24 16,0 c 6.62742,0 12,-5.37258 12,-12 l 0,-16 c 0,-6.62742 -5.37258,-12 -12,-12 -9.33333,0 -18.66667,0 -28,0 z m 56,0 c -6.62743,0 -12,5.37258 -12,12 l 0,12 c 0,6.6274 5.37259,12 12,12 l 16,0 0,16 -16,0 0,-4 -12,0 0,4 c 0,6.6274 5.37259,12 12,12 l 16,0 c 6.62741,0 12,-5.37259 12,-12 l 0,-16 c 0,-6.62742 -5.37257,-12 -12,-12 l -16,0 0,-12 16,0 0,4 12,0 0,-4 c 0,-6.62742 -5.37257,-12 -12,-12 z m -44,12 16,0 0,16 -16,0 z" />
  <g
     style="fill:#ffffff"
     id="upgrade"
     transform="translate(0,-92.36211)">
    <use
       xlink:href="#rect3178"
       height="640"
       width="640"
       y="0"
       x="0"
       style="fill:#ffffff"
       id="use3307"
       transform="translate(640,732.36216)" />
    <rect
       style="fill:#ffffff;fill-opacity:1;stroke:none"
       id="rect3309"
       transform="matrix(0,1,-1,0,0,0)"
       y="-556"
       x="756.36218"
       ry="8"
       rx="8"
       height="24"
       width="80" />
    <rect
       style="fill:#ffffff;fill-opacity:1;stroke:none"
       id="rect3311"
       transform="scale(-1,-1)"
       y="-808.36218"
       x="-584"
       ry="8"
       rx="8"
       height="24.000002"
       width="80" />
  </g>
  <g
     id="selected"
     transform="translate(-1120,419.63789)">
    <use
       xlink:href="#rect3178"
       height="640"
       width="640"
       y="0"
       x="0"
       style="fill:#ffffff"
       id="use3318"
       transform="translate(1600,220.36216)" />
    <path
       inkscape:connector-curvature="0"
       style="fill:#ffffff;fill-opacity:1;stroke:none"
       id="path3320"
       d="m 1475.8666,226.91017 c -13.1903,6.44575 -23.2537,16.93662 -29.3211,29.32815 l 14.3507,7.04446 c 4.548,-9.30392 12.0919,-17.19472 21.9933,-22.03096 z m 56.2525,0.005 -7.0444,14.35068 c 9.3082,4.54707 17.1632,12.1028 22.002,22.00523 l 14.3994,-7.04681 c -6.4486,-13.20086 -16.9502,-23.25203 -29.357,-29.3091 z m -71.2366,78.55307 -14.3706,7.03487 c 6.4494,13.19602 16.9535,23.25135 29.357,29.3091 l 7.0445,-14.35068 c -9.3038,-4.54827 -17.1945,-12.09225 -22.0309,-21.99329 z m 86.2093,-0.024 c -4.547,9.30851 -12.1027,17.16326 -22.0052,22.00209 l 7.0468,14.39939 c 13.2009,-6.44864 23.252,-16.95019 29.3091,-29.35702 z" />
  </g>
  <g
     id="level_0"
     transform="translate(0,-412.36211)">
    <use
       xlink:href="#rect3178"
       height="640"
       width="640"
       y="0"
       x="0"
       style="fill:#ffffff"
       id="use3188"
       transform="translate(800,1052.3622)" />
    <path
       inkscape:connector-curvature="0"
       style="fill:#ffffff;fill-opacity:1;stroke:none"
       id="path3197"
       transform="translate(0,412.36218)"
       d="m 720,704 a 16,16 0 1 1 -32,0 16,16 0 1 1 32,0 z" />
  </g>
  <g
     id="level_0u"
     transform="translate(0,-412.36211)">
    <use
       xlink:href="#rect3178"
       height="640"
       width="640"
       y="0"
       x="0"
       style="fill:#ffffff"
       id="use3970"
       transform="translate(960,1052.3622)" />
    <path
       inkscape:connector-curvature="0"
       style="fill:#ffffff;fill-opacity:1;stroke:none"
       id="path3974"
       transform="translate(0,412.36218)"
       d="m 864,688 c -8.83656,0 -16,7.16344 -16,16 0,8.83656 7.16344,16 16,16 8.83656,0 16,-7.16344 16,-16 0,-8.83656 -7.16344,-16 -16,-16 z m -4,4 8,0 0,8 8,0 0,8 -8,0 0,8 -8,0 0,-8 -8,0 0,-8 8,0 0,-8 z" />
  </g>
  <g
     id="level_1"
     transform="translate(0,-412.36211)">
    <use
       xlink:href="#rect3178"
       height="640"
       width="640"
       y="0"
       x="0"
       style="fill:#ffffff"
       id="use3984"
       transform="translate(800,1212.3622)" />
    <path
       inkscape:connector-curvature="0"
       style="fill:#ffffff;fill-opacity:1;stroke:none"
       id="path3986"
       transform="translate(0,572.36218)"
       d="m 720,704 a 16,16 0 1 1 -32,0 16,16 0 1 1 32,0 z" />
    <path
       inkscape:connector-curvature="0"
       style="fill:#ffffff;fill-opacity:1;stroke:none"
       id="path3988"
       d="m 704,1236.3622 c 4,12 8,12 8,20 0,0 -4,4 -8,4 -4,0 -8,-4 -8,-4 0,-8 4,-8 8,-20 z" />
  </g>
  <g
     id="level_1u"
     transform="translate(0,-412.36211)">
    <use
       xlink:href="#rect3178"
       height="640"
       width="640"
       y="0"
       x="0"
       style="fill:#ffffff"
       id="use3990"
       transform="translate(960,1212.3622)" />
    <path
       inkscape:connector-curvature="0"
       style="fill:#ffffff;fill-opacity:1;stroke:none"
       id="path3992"
       d="m 864,1260.3622 c -8.83656,0 -16,7.1634 -16,16 0,8.8365 7.16344,16 16,16 8.83656,0 16,-7.1635 16,-16 0,-8.8366 -7.16344,-16 -16,-16 z m -4,4 8,0 0,8 8,0 0,8 -8,0 0,8 -8,0 0,-8 -8,0 0,-8 8,0 0,-8 z" />
    <path
       inkscape:connector-curvature="0"
       style="fill:#ffffff;fill-opacity:1;stroke:none"
       id="path3995"
       d="m 864,1236.3622 c 4,12 8,12 8,20 0,0 -4,4 -8,4 -4,0 -8,-4 -8,-4 0,-8 4,-8 8,-20 z" />
  </g>
  <g
     id="level_2"
     transform="translate(0,-252.36211)">
    <use
       xlink:href="#rect3178"
       height="640"
       width="640"
       y="0"
       x="0"
       style="fill:#ffffff"
       id="use4029"
       transform="translate(800,1212.3622)" />
    <path
       inkscape:connector-curvature="0"
       style="fill:#ffffff;fill-opacity:1;stroke:none"
       id="path4031"
       transform="translate(0,572.36218)"
       d="m 720,704 a 16,16 0 1 1 -32,0 16,16 0 1 1 32,0 z" />
    <path
       inkscape:connector-curvature="0"
       style="fill:#ffffff;fill-opacity:1;stroke:none"
       id="path4033"
       d="m 704,1236.3622 c 4,12 8,12 8,20 0,0 -4,4 -8,4 -4,0 -8,-4 -8,-4 0,-8 4,-8 8,-20 z" />
    <path
       inkscape:connector-curvature="0"
       style="fill:#ffffff;fill-opacity:1;stroke:none"
       id="path4043"
       d="m 704,1316.3622 c -4,-12 -8,-12 -8,-20 0,0 4,-4 8,-4 4,0 8,4 8,4 0,8 -4,8 -8,20 z" />
  </g>
  <g
     id="level_2u"
     transform="translate(0,-252.36211)">
    <use
       xlink:href="#rect3178"
       height="640"
       width="640"
       y="0"
       x="0"
       style="fill:#ffffff"
       id="use4037"
       transform="translate(960,1212.3622)" />
    <path
       inkscape:connector-curvature="0"
       style="fill:#ffffff;fill-opacity:1;stroke:none"
       id="path4039"
       d="m 864,1260.3622 c -8.83656,0 -16,7.1634 -16,16 0,8.8365 7.16344,16 16,16 8.83656,0 16,-7.1635 16,-16 0,-8.8366 -7.16344,-16 -16,-16 z m -4,4 8,0 0,8 8,0 0,8 -8,0 0,8 -8,0 0,-8 -8,0 0,-8 8,0 0,-8 z" />
    <path
       inkscape:connector-curvature="0"
       style="fill:#ffffff;fill-opacity:1;stroke:none"
       id="path4041"
       d="m 864,1236.3622 c 4,12 8,12 8,20 0,0 -4,4 -8,4 -4,0 -8,-4 -8,-4 0,-8 4,-8 8,-20 z" />
    <path
       inkscape:connector-curvature="0"
       style="fill:#ffffff;fill-opacity:1;stroke:none"
       id="path4045"
       d="m 864,1316.3622 c -4,-12 -8,-12 -8,-20 0,0 4,-4 8,-4 4,0 8,4 8,4 0,8 -4,8 -8,20 z" />
  </g>
  <g
     id="level_3"
     transform="translate(0,-92.36211)">
    <use
       xlink:href="#rect3178"
       height="640"
       width="640"
       y="0"
       x="0"
       style="fill:#ffffff"
       id="use4049"
       transform="translate(800,1212.3622)" />
    <path
       inkscape:connector-curvature="0"
       style="fill:#ffffff;fill-opacity:1;stroke:none"
       id="path4051"
       transform="translate(0,572.36218)"
       d="m 720,704 a 16,16 0 1 1 -32,0 16,16 0 1 1 32,0 z" />
    <path
       inkscape:connector-curvature="0"
       style="fill:#ffffff;fill-opacity:1;stroke:none"
       id="path4053"
       d="m 704,1236.3622 c 4,12 8,12 8,20 0,0 -4,4 -8,4 -4,0 -8,-4 -8,-4 0,-8 4,-8 8,-20 z" />
    <path
       inkscape:connector-curvature="0"
       style="fill:#ffffff;fill-opacity:1;stroke:none"
       id="path4063"
       d="m 738.641,1296.3622 c -12.39231,-2.5359 -14.39231,0.9282 -21.32051,-3.0718 0,0 -1.4641,-5.4641 0.5359,-8.9282 2,-3.4641 7.4641,-4.9282 7.4641,-4.9282 6.9282,4 4.9282,7.4641 13.32051,16.9282 z" />
    <path
       inkscape:connector-curvature="0"
       style="fill:#ffffff;fill-opacity:1;stroke:none"
       id="path4065"
       d="m 669.359,1296.3622 c 8.39231,-9.4641 6.39231,-12.9282 13.32051,-16.9282 0,0 5.4641,1.4641 7.4641,4.9282 2,3.4641 0.5359,8.9282 0.5359,8.9282 -6.9282,4 -8.9282,0.5359 -21.32051,3.0718 z" />
  </g>
  <g
     id="level_3u"
     transform="translate(0,-92.36211)">
    <use
       xlink:href="#rect3178"
       height="640"
       width="640"
       y="0"
       x="0"
       style="fill:#ffffff"
       id="use4057"
       transform="translate(960,1212.3622)" />
    <path
       inkscape:connector-curvature="0"
       style="fill:#ffffff;fill-opacity:1;stroke:none"
       id="path4059"
       d="m 864,1260.3622 c -8.83656,0 -16,7.1634 -16,16 0,8.8365 7.16344,16 16,16 8.83656,0 16,-7.1635 16,-16 0,-8.8366 -7.16344,-16 -16,-16 z m -4,4 8,0 0,8 8,0 0,8 -8,0 0,8 -8,0 0,-8 -8,0 0,-8 8,0 0,-8 z" />
    <path
       inkscape:connector-curvature="0"
       style="fill:#ffffff;fill-opacity:1;stroke:none"
       id="path4061"
       d="m 864,1236.3622 c 4,12 8,12 8,20 0,0 -4,4 -8,4 -4,0 -8,-4 -8,-4 0,-8 4,-8 8,-20 z" />
    <path
       inkscape:connector-curvature="0"
       style="fill:#ffffff;fill-opacity:1;stroke:none"
       id="path4067"
       d="m 898.641,1296.3622 c -12.39231,-2.5359 -14.39231,0.9282 -21.32051,-3.0718 0,0 -1.4641,-5.4641 0.5359,-8.9282 2,-3.4641 7.4641,-4.9282 7.4641,-4.9282 6.9282,4 4.9282,7.4641 13.32051,16.9282 z" />
    <path
       inkscape:connector-curvature="0"
       style="fill:#ffffff;fill-opacity:1;stroke:none"
       id="path4069"
       d="m 829.359,1296.3622 c 8.39231,-9.4641 6.39231,-12.9282 13.32051,-16.9282 0,0 5.4641,1.4641 7.4641,4.9282 2,3.4641 0.5359,8.9282 0.5359,8.9282 -6.9282,4 -8.9282,0.5359 -21.32051,3.0718 z" />
  </g>
  <g
     id="level_4"
     transform="translate(0,67.63789)">
    <use
       xlink:href="#rect3178"
       height="640"
       width="640"
       y="0"
       x="0"
       style="fill:#ffffff"
       id="use4073"
       transform="translate(800,1212.3622)" />
    <path
       inkscape:connector-curvature="0"
       style="fill:#ffffff;fill-opacity:1;stroke:none"
       id="path4075"
       transform="translate(0,572.36218)"
       d="m 720,704 a 16,16 0 1 1 -32,0 16,16 0 1 1 32,0 z" />
    <path
       inkscape:connector-curvature="0"
       style="fill:#ffffff;fill-opacity:1;stroke:none"
       id="path4077"
       d="m 675.71573,1248.0779 c 11.31371,5.6569 14.14213,2.8285 19.79899,8.4853 0,0 0,5.6569 -2.82843,8.4853 -2.82843,2.8284 -8.48528,2.8284 -8.48528,2.8284 -5.65685,-5.6568 -2.82843,-8.4853 -8.48528,-19.799 z" />
    <path
       inkscape:connector-curvature="0"
       style="fill:#ffffff;fill-opacity:1;stroke:none"
       id="path4079"
       d="m 732.28427,1304.6465 c -11.31371,-5.6569 -14.14213,-2.8285 -19.79899,-8.4853 0,0 0,-5.6569 2.82843,-8.4853 2.82843,-2.8284 8.48528,-2.8284 8.48528,-2.8284 5.65685,5.6568 2.82843,8.4853 8.48528,19.799 z" />
    <path
       inkscape:connector-curvature="0"
       style="fill:#ffffff;fill-opacity:1;stroke:none"
       id="path4091"
       d="m 732.28427,1248.0779 c -5.65685,11.3137 -2.82843,14.1422 -8.48528,19.799 0,0 -5.65685,0 -8.48528,-2.8284 -2.82843,-2.8284 -2.82843,-8.4853 -2.82843,-8.4853 5.65686,-5.6568 8.48528,-2.8284 19.79899,-8.4853 z" />
    <path
       inkscape:connector-curvature="0"
       style="fill:#ffffff;fill-opacity:1;stroke:none"
       id="path4093"
       d="m 675.71573,1304.6465 c 5.65685,-11.3137 2.82843,-14.1422 8.48528,-19.799 0,0 5.65685,0 8.48528,2.8284 2.82843,2.8284 2.82843,8.4853 2.82843,8.4853 -5.65686,5.6568 -8.48528,2.8284 -19.79899,8.4853 z" />
  </g>
  <g
     id="level_4u"
     transform="translate(0,67.63789)">
    <use
       xlink:href="#rect3178"
       height="640"
       width="640"
       y="0"
       x="0"
       style="fill:#ffffff"
       id="use4083"
       transform="translate(960,1212.3622)" />
    <path
       inkscape:connector-curvature="0"
       style="fill:#ffffff;fill-opacity:1;stroke:none"
       id="path4085"
       d="m 864,1260.3622 c -8.83656,0 -16,7.1634 -16,16 0,8.8365 7.16344,16 16,16 8.83656,0 16,-7.1635 16,-16 0,-8.8366 -7.16344,-16 -16,-16 z m -4,4 8,0 0,8 8,0 0,8 -8,0 0,8 -8,0 0,-8 -8,0 0,-8 8,0 0,-8 z" />
    <path
       inkscape:connector-curvature="0"
       style="fill:#ffffff;fill-opacity:1;stroke:none"
       id="path4087"
       d="m 835.71573,1248.0779 c 11.31371,5.6569 14.14213,2.8285 19.79899,8.4853 0,0 0,5.6569 -2.82843,8.4853 -2.82843,2.8284 -8.48528,2.8284 -8.48528,2.8284 -5.65685,-5.6568 -2.82843,-8.4853 -8.48528,-19.799 z" />
    <path
       inkscape:connector-curvature="0"
       style="fill:#ffffff;fill-opacity:1;stroke:none"
       id="path4089"
       d="m 892.28427,1304.6465 c -11.31371,-5.6569 -14.14213,-2.8285 -19.79899,-8.4853 0,0 0,-5.6569 2.82843,-8.4853 2.82843,-2.8284 8.48528,-2.8284 8.48528,-2.8284 5.65685,5.6568 2.82843,8.4853 8.48528,19.799 z" />
    <path
       inkscape:connector-curvature="0"
       style="fill:#ffffff;fill-opacity:1;stroke:none"
       id="path4095"
       d="m 892.28427,1248.0779 c -5.65685,11.3137 -2.82843,14.1422 -8.48528,19.799 0,0 -5.65685,0 -8.48528,-2.8284 -2.82843,-2.8284 -2.82843,-8.4853 -2.82843,-8.4853 5.65686,-5.6568 8.48528,-2.8284 19.79899,-8.4853 z" />
    <path
       inkscape:connector-curvature="0"
       style="fill:#ffffff;fill-opacity:1;stroke:none"
       id="path4097"
       d="m 835.71573,1304.6465 c 5.65685,-11.3137 2.82843,-14.1422 8.48528,-19.799 0,0 5.65685,0 8.48528,2.8284 2.82843,2.8284 2.82843,8.4853 2.82843,8.4853 -5.65686,5.6568 -8.48528,2.8284 -19.79899,8.4853 z" />
  </g>
  <g
     id="vest"
     transform="translate(-32,-572.36221)">
    <use
       xlink:href="#rect3178"
       height="640"
       width="640"
       y="0"
       x="0"
       style="fill:#ffffff"
       id="use4185"
       transform="translate(352,1212.3623)" />
    <path
       inkscape:connector-curvature="0"
       style="fill:#ffffff;fill-opacity:1;stroke:none"
       id="rect4205"
       d="m 280,1308.3623 0,-20 c -4,-4 -8,-8 -8,-12 0,-8 4,-20 16,-24 0,0 -4,-4 -8,-4 l -12,0 c 0,8 -8,12 -12,12 -4,0 -12,-4 -12,-12 l -12,0 c -4,0 -8,4 -8,4 12,4 16,16 16,24 0,4 -4,8 -8,12 l 0,20 c 8,4 16,8 24,8 8,0 16,-4 24,-8 z" />
  </g>
  <g
     id="helmet"
     transform="translate(0,-412.36211)">
    <use
       xlink:href="#rect3178"
       height="640"
       width="640"
       y="0"
       x="0"
       style="fill:#ffffff"
       id="use4125"
       transform="matrix(1,0,0,-1,160,1180.3623)" />
    <path
       inkscape:connector-curvature="0"
       style="fill:#ffffff;fill-opacity:1;stroke:none"
       id="path4141"
       transform="translate(0,412.36218)"
       d="m 64,680 c -17.673112,0 -32,14.3269 -32,32 0,5.8289 1.55823,11.293 4.28125,16 L 56,728 60.28125,719.40625 C 55.480229,717.83741 52,713.32505 52,708 c 0,-6.62742 5.372583,-12 12,-12 6.627417,0 12,5.37258 12,12 l 0,4 20,0 C 96,694.3269 81.673112,680 64,680 z" />
    <path
       inkscape:connector-curvature="0"
       style="fill:#ffffff;fill-opacity:1;stroke:none"
       id="path4227"
       transform="matrix(0.66666667,0,0,0.66666667,21.333333,651.02885)"
       d="m 76,704 a 12,12 0 1 1 -24,0 12,12 0 1 1 24,0 z" />
  </g>
</svg>
